<svg id="Layer_1" data-name="Layer 1" xmlns="http://www.w3.org/2000/svg" width="21" height="21" viewBox="0 0 21 21"><title>airport-15</title><rect width="21" height="21" fill="none"/><path d="M18,9.8182V11.5l-6.5-1-.3182,4.7727L14,17v1l-3.5-.6818L7,18V17l2.8182-1.7273L9.5,10.5,3,11.5V9.8182L9.5,7.5v-3s0-1.5,1-1.5,1,1.5,1,1.5V7.3182Z" fill="#fff" stroke="#fff" stroke-linejoin="round" stroke-width="2"/><path d="M18,9.8182V11.5l-6.5-1-.3182,4.7727L14,17v1l-3.5-.6818L7,18V17l2.8182-1.7273L9.5,10.5,3,11.5V9.8182L9.5,7.5v-3s0-1.5,1-1.5,1,1.5,1,1.5V7.3182Z" fill="#969696"/></svg>