<svg id="Layer_1" data-name="Layer 1" xmlns="http://www.w3.org/2000/svg" width="17" height="17" viewBox="0 0 17 17"><title>airport-11</title><rect width="17" height="17" fill="none"/><path d="M9.5,9.4V9l4.5.5V8L9.5,6.2V4.5c0-1-.5-1.5-1-1.5s-1,.5-1,1.5V6.2L3,8V9.4L7.5,9v3.3L6,13v1l2.5-.5L11,14V13l-1.5-.8V9.4Z" fill="#fff" stroke="#fff" stroke-linejoin="round" stroke-width="2"/><path d="M9.5,9.4V9l4.5.5V8L9.5,6.2V4.5c0-1-.5-1.5-1-1.5s-1,.5-1,1.5V6.2L3,8V9.4L7.5,9v3.3L6,13v1l2.5-.5L11,14V13l-1.5-.8V9.4Z" fill="#969696"/></svg>