<svg id="Layer_1" data-name="Layer 1" xmlns="http://www.w3.org/2000/svg" width="21" height="21" viewBox="0 0 21 21"><title>ferry-15</title><rect width="21" height="21" fill="none"/><path d="M8.33,14a3,3,0,0,1,1.85.67l.26.23h.05l.31-.28a2.89,2.89,0,0,1,3.44-.18L16.5,10,15,9V5.45A1.54,1.54,0,0,0,13.5,4H13a.94.94,0,0,0-.8759-1A.9517.9517,0,0,0,12,3H9a.94.94,0,0,0-1,.8759A.9517.9517,0,0,0,8,4H7.5A1.54,1.54,0,0,0,6,5.45V9L4.5,10l2.25,4.53A2.93,2.93,0,0,1,8.33,14ZM7,5.45a.47.47,0,0,1,.4886-.4506L7.5,5h6a.47.47,0,0,1,.5.4379A.46.46,0,0,1,14,5.5v3l-3.5-2L7,8.45ZM17,16v1a1,1,0,0,0-.68.34,2.1507,2.1507,0,0,1-1,.6,1.91,1.91,0,0,1-1.77-.37l-.39-.35a.78.78,0,0,0-1.1,0c-.14.12-.27.25-.42.37a1.92,1.92,0,0,1-2.48-.07l-.39-.35a.76.76,0,0,0-1,0c-.19.15-.36.32-.55.47a1.91,1.91,0,0,1-2.35-.06l-.31-.27A.94.94,0,0,0,4,17V16a1.2593,1.2593,0,0,1,.75.14,6.2,6.2,0,0,1,.79.58.84.84,0,0,0,.81.25.93.93,0,0,0,.31-.16c.16-.12.29-.26.45-.39a1.92,1.92,0,0,1,2.45,0c.16.13.31.28.47.41a.76.76,0,0,0,1,0c.16-.13.31-.28.47-.41a1.92,1.92,0,0,1,2.46,0c.15.13.29.27.44.39a.76.76,0,0,0,1,0l.47-.41A1.79,1.79,0,0,1,17,16Z" fill="#fff" stroke="#fff" stroke-linejoin="round" stroke-width="2"/><path d="M8.33,14a3,3,0,0,1,1.85.67l.26.23h.05l.31-.28a2.89,2.89,0,0,1,3.44-.18L16.5,10,15,9V5.45A1.54,1.54,0,0,0,13.5,4H13a.94.94,0,0,0-.8759-1A.9517.9517,0,0,0,12,3H9a.94.94,0,0,0-1,.8759A.9517.9517,0,0,0,8,4H7.5A1.54,1.54,0,0,0,6,5.45V9L4.5,10l2.25,4.53A2.93,2.93,0,0,1,8.33,14ZM7,5.45a.47.47,0,0,1,.4886-.4506L7.5,5h6a.47.47,0,0,1,.5.4379A.46.46,0,0,1,14,5.5v3l-3.5-2L7,8.45ZM17,16v1a1,1,0,0,0-.68.34,2.1507,2.1507,0,0,1-1,.6,1.91,1.91,0,0,1-1.77-.37l-.39-.35a.78.78,0,0,0-1.1,0c-.14.12-.27.25-.42.37a1.92,1.92,0,0,1-2.48-.07l-.39-.35a.76.76,0,0,0-1,0c-.19.15-.36.32-.55.47a1.91,1.91,0,0,1-2.35-.06l-.31-.27A.94.94,0,0,0,4,17V16a1.2593,1.2593,0,0,1,.75.14,6.2,6.2,0,0,1,.79.58.84.84,0,0,0,.81.25.93.93,0,0,0,.31-.16c.16-.12.29-.26.45-.39a1.92,1.92,0,0,1,2.45,0c.16.13.31.28.47.41a.76.76,0,0,0,1,0c.16-.13.31-.28.47-.41a1.92,1.92,0,0,1,2.46,0c.15.13.29.27.44.39a.76.76,0,0,0,1,0l.47-.41A1.79,1.79,0,0,1,17,16Z" fill="#49799e"/></svg>