<svg id="bldg_line" data-name="bldg line" xmlns="http://www.w3.org/2000/svg" width="64" height="64" viewBox="0 0 64 64"><title>minimo</title><polyline points="18.604 3.024 19.023 2.85 19.197 2.431 19.023 2.012 18.604 1.838 18.185 2.012 18.012 2.431 18.185 2.85 18.604 3.024" fill="#727373"/><polyline points="18.604 6.58 19.023 6.407 19.197 5.988 19.023 5.569 18.604 5.395 18.185 5.569 18.012 5.988 18.185 6.407 18.604 6.58" fill="#727373"/><polyline points="17.937 9.69 18.356 9.516 18.53 9.097 18.356 8.678 17.937 8.504 17.518 8.678 17.345 9.097 17.518 9.516 17.937 9.69" fill="#727373"/><polyline points="12.827 9.914 13.246 9.741 13.42 9.322 13.246 8.903 12.827 8.729 12.408 8.903 12.234 9.322 12.408 9.741 12.827 9.914" fill="#727373"/><polyline points="21.271 19.025 21.69 18.852 21.864 18.433 21.69 18.014 21.271 17.84 20.852 18.014 20.679 18.433 20.852 18.852 21.271 19.025" fill="#727373"/><polyline points="11.716 23.691 12.135 23.518 12.308 23.099 12.135 22.68 11.716 22.506 11.297 22.68 11.123 23.099 11.297 23.518 11.716 23.691" fill="#727373"/><polyline points="21.271 24.357 21.69 24.184 21.864 23.765 21.69 23.346 21.271 23.172 20.852 23.346 20.679 23.765 20.852 24.184 21.271 24.357" fill="#727373"/><polyline points="26.382 24.357 26.801 24.184 26.975 23.765 26.802 23.346 26.382 23.172 25.963 23.346 25.79 23.765 25.963 24.184 26.382 24.357" fill="#727373"/><polyline points="27.715 21.023 28.134 20.85 28.308 20.431 28.134 20.012 27.715 19.838 27.296 20.012 27.123 20.431 27.296 20.85 27.715 21.023" fill="#727373"/><polyline points="25.938 16.58 26.357 16.407 26.531 15.988 26.357 15.568 25.938 15.395 25.519 15.568 25.346 15.988 25.519 16.407 25.938 16.58" fill="#727373"/><polyline points="30.16 17.914 30.579 17.741 30.752 17.322 30.579 16.902 30.16 16.729 29.741 16.902 29.567 17.322 29.741 17.741 30.16 17.914" fill="#727373"/><polyline points="30.16 13.691 30.579 13.518 30.752 13.099 30.579 12.68 30.16 12.506 29.741 12.68 29.567 13.099 29.741 13.518 30.16 13.691" fill="#727373"/><polyline points="28.16 10.801 28.579 10.627 28.752 10.208 28.579 9.789 28.16 9.616 27.741 9.789 27.567 10.208 27.741 10.627 28.16 10.801" fill="#727373"/><polyline points="28.604 6.58 29.023 6.407 29.197 5.988 29.023 5.569 28.604 5.395 28.185 5.569 28.012 5.988 28.185 6.407 28.604 6.58" fill="#727373"/><polyline points="27.493 3.469 27.912 3.295 28.085 2.876 27.912 2.457 27.493 2.284 27.074 2.457 26.9 2.876 27.074 3.295 27.493 3.469" fill="#727373"/><polyline points="30.16 1.469 30.579 1.295 30.752 0.876 30.579 0.457 30.16 0.284 29.741 0.457 29.567 0.876 29.741 1.295 30.16 1.469" fill="#727373"/><polyline points="36.827 6.58 37.246 6.407 37.419 5.988 37.246 5.569 36.827 5.395 36.408 5.569 36.234 5.988 36.408 6.407 36.827 6.58" fill="#727373"/><polyline points="40.382 6.358 40.801 6.184 40.975 5.765 40.801 5.346 40.382 5.172 39.963 5.346 39.79 5.765 39.963 6.184 40.382 6.358" fill="#727373"/><polyline points="37.715 12.357 38.134 12.184 38.308 11.765 38.134 11.346 37.715 11.172 37.296 11.346 37.123 11.765 37.296 12.184 37.715 12.357" fill="#727373"/><polyline points="41.715 13.023 42.134 12.85 42.308 12.431 42.134 12.012 41.715 11.838 41.296 12.012 41.123 12.431 41.296 12.85 41.715 13.023" fill="#727373"/><polyline points="41.715 17.469 42.134 17.295 42.308 16.876 42.134 16.457 41.715 16.284 41.296 16.457 41.123 16.876 41.296 17.295 41.715 17.469" fill="#727373"/><polyline points="34.605 18.803 35.024 18.629 35.198 18.21 35.024 17.791 34.605 17.618 34.186 17.791 34.012 18.21 34.186 18.629 34.605 18.803" fill="#727373"/><polyline points="44.604 12.357 45.023 12.184 45.197 11.765 45.023 11.346 44.604 11.172 44.185 11.346 44.011 11.765 44.185 12.184 44.604 12.357" fill="#727373"/><polyline points="48.604 10.135 49.023 9.961 49.197 9.542 49.023 9.123 48.604 8.95 48.185 9.123 48.011 9.542 48.185 9.961 48.604 10.135" fill="#727373"/><polyline points="50.259 1.297 50.678 1.123 50.852 0.704 50.678 0.285 50.259 0.112 49.84 0.285 49.667 0.704 49.84 1.123 50.259 1.297" fill="#727373"/><polyline points="59.938 1.912 60.357 1.739 60.53 1.32 60.357 0.901 59.938 0.727 59.519 0.901 59.345 1.32 59.519 1.739 59.938 1.912" fill="#727373"/><polyline points="60.382 9.469 60.801 9.295 60.975 8.876 60.801 8.457 60.382 8.284 59.963 8.457 59.79 8.876 59.963 9.295 60.382 9.469" fill="#727373"/><polyline points="57.048 11.246 57.467 11.073 57.641 10.654 57.467 10.235 57.048 10.061 56.629 10.235 56.456 10.654 56.629 11.073 57.048 11.246" fill="#727373"/><polyline points="57.938 14.357 58.357 14.184 58.53 13.765 58.357 13.346 57.938 13.172 57.519 13.346 57.345 13.765 57.519 14.184 57.938 14.357" fill="#727373"/><polyline points="56.827 17.914 57.246 17.741 57.419 17.322 57.246 16.902 56.827 16.729 56.408 16.902 56.234 17.322 56.408 17.741 56.827 17.914" fill="#727373"/><polyline points="57.048 20.357 57.467 20.184 57.641 19.765 57.467 19.346 57.048 19.172 56.629 19.346 56.456 19.765 56.629 20.184 57.048 20.357" fill="#727373"/><polyline points="60.382 19.246 60.801 19.073 60.975 18.654 60.801 18.234 60.382 18.061 59.963 18.234 59.79 18.654 59.963 19.073 60.382 19.246" fill="#727373"/><polyline points="6.16 46.802 6.579 46.629 6.753 46.21 6.579 45.791 6.16 45.617 5.741 45.791 5.567 46.21 5.741 46.629 6.16 46.802" fill="#727373"/><polyline points="6.383 48.802 6.802 48.629 6.975 48.21 6.802 47.791 6.383 47.617 5.964 47.791 5.79 48.21 5.964 48.629 6.383 48.802" fill="#727373"/><polyline points="1.938 48.802 2.357 48.629 2.531 48.21 2.357 47.791 1.938 47.617 1.519 47.791 1.346 48.21 1.519 48.629 1.938 48.802" fill="#727373"/><polyline points="8.604 57.246 9.023 57.072 9.197 56.653 9.023 56.234 8.604 56.061 8.185 56.234 8.012 56.653 8.185 57.072 8.604 57.246" fill="#727373"/><polyline points="0.827 60.802 1.246 60.629 1.42 60.21 1.246 59.791 0.827 59.617 0.408 59.791 0.234 60.21 0.408 60.629 0.827 60.802" fill="#727373"/><polyline points="9.716 63.468 10.135 63.295 10.308 62.876 10.135 62.457 9.716 62.283 9.297 62.457 9.123 62.876 9.297 63.295 9.716 63.468" fill="#727373"/><polyline points="16.383 58.58 16.802 58.406 16.975 57.987 16.802 57.568 16.383 57.395 15.964 57.568 15.79 57.987 15.964 58.406 16.383 58.58" fill="#727373"/><polyline points="14.382 55.691 14.801 55.518 14.974 55.099 14.801 54.679 14.382 54.506 13.963 54.679 13.789 55.099 13.963 55.518 14.382 55.691" fill="#727373"/><polyline points="17.271 51.691 17.69 51.518 17.864 51.099 17.69 50.679 17.271 50.506 16.852 50.679 16.679 51.099 16.852 51.518 17.271 51.691" fill="#727373"/><polyline points="10.827 55.468 11.246 55.295 11.42 54.876 11.246 54.457 10.827 54.283 10.408 54.457 10.234 54.876 10.408 55.295 10.827 55.468" fill="#727373"/><polyline points="14.382 49.025 14.801 48.852 14.974 48.433 14.801 48.014 14.382 47.84 13.963 48.014 13.789 48.433 13.963 48.852 14.382 49.025" fill="#727373"/><polyline points="17.05 45.691 17.469 45.518 17.642 45.099 17.469 44.68 17.05 44.506 16.631 44.68 16.457 45.099 16.631 45.518 17.05 45.691" fill="#727373"/><polyline points="13.049 45.691 13.468 45.518 13.641 45.099 13.468 44.68 13.049 44.506 12.63 44.68 12.456 45.099 12.63 45.518 13.049 45.691" fill="#727373"/><polyline points="14.382 42.357 14.801 42.184 14.974 41.765 14.801 41.346 14.382 41.172 13.963 41.346 13.789 41.765 13.963 42.184 14.382 42.357" fill="#727373"/><polyline points="28.826 45.468 29.245 45.295 29.418 44.876 29.245 44.457 28.826 44.283 28.407 44.457 28.233 44.876 28.407 45.295 28.826 45.468" fill="#727373"/><polyline points="24.16 48.58 24.579 48.406 24.752 47.987 24.579 47.568 24.16 47.395 23.741 47.568 23.567 47.987 23.741 48.406 24.16 48.58" fill="#727373"/><polyline points="28.382 49.912 28.801 49.738 28.975 49.319 28.801 48.9 28.382 48.727 27.963 48.9 27.79 49.319 27.963 49.738 28.382 49.912" fill="#727373"/><polyline points="27.493 52.802 27.912 52.629 28.085 52.21 27.912 51.791 27.493 51.617 27.074 51.791 26.9 52.21 27.074 52.629 27.493 52.802" fill="#727373"/><polyline points="23.049 57.023 23.468 56.85 23.641 56.431 23.468 56.011 23.049 55.838 22.629 56.011 22.456 56.431 22.63 56.85 23.049 57.023" fill="#727373"/><polyline points="31.937 50.357 32.356 50.184 32.53 49.765 32.356 49.346 31.937 49.172 31.518 49.346 31.345 49.765 31.518 50.184 31.937 50.357" fill="#727373"/><polyline points="37.048 45.468 37.467 45.295 37.641 44.876 37.467 44.457 37.048 44.283 36.629 44.457 36.456 44.876 36.629 45.295 37.048 45.468" fill="#727373"/><polyline points="38.604 40.137 39.023 39.963 39.197 39.544 39.023 39.125 38.604 38.951 38.185 39.125 38.011 39.544 38.185 39.963 38.604 40.137" fill="#727373"/><polyline points="44.604 46.134 45.023 45.961 45.197 45.542 45.023 45.123 44.604 44.949 44.185 45.123 44.011 45.542 44.185 45.961 44.604 46.134" fill="#727373"/><polyline points="45.715 42.802 46.134 42.629 46.308 42.21 46.134 41.791 45.715 41.617 45.296 41.791 45.123 42.21 45.296 42.629 45.715 42.802" fill="#727373"/><polyline points="48.827 42.135 49.246 41.961 49.419 41.542 49.246 41.123 48.827 40.949 48.408 41.123 48.234 41.542 48.408 41.961 48.827 42.135" fill="#727373"/><polyline points="48.827 48.58 49.246 48.406 49.419 47.987 49.246 47.568 48.827 47.395 48.408 47.568 48.234 47.987 48.408 48.406 48.827 48.58" fill="#727373"/><polyline points="45.494 50.357 45.913 50.184 46.086 49.765 45.913 49.346 45.494 49.172 45.075 49.346 44.901 49.765 45.075 50.184 45.494 50.357" fill="#727373"/><polyline points="42.382 53.914 42.801 53.74 42.975 53.321 42.801 52.902 42.382 52.729 41.963 52.902 41.79 53.321 41.963 53.74 42.382 53.914" fill="#727373"/><polyline points="49.049 52.134 49.468 51.961 49.642 51.542 49.468 51.123 49.049 50.949 48.63 51.123 48.457 51.542 48.63 51.961 49.049 52.134" fill="#727373"/><polyline points="51.715 55.025 52.134 54.852 52.308 54.433 52.134 54.013 51.715 53.84 51.296 54.013 51.123 54.433 51.296 54.852 51.715 55.025" fill="#727373"/><polyline points="18.16 20.357 18.579 20.184 18.752 19.765 18.579 19.346 18.16 19.172 17.741 19.346 17.567 19.765 17.741 20.184 18.16 20.357" fill="#727373"/><polyline points="34.605 22.357 35.024 22.184 35.198 21.765 35.024 21.346 34.605 21.172 34.186 21.346 34.012 21.765 34.186 22.184 34.605 22.357" fill="#727373"/><polyline points="42.161 24.58 42.58 24.406 42.753 23.987 42.58 23.568 42.161 23.395 41.742 23.568 41.568 23.987 41.742 24.406 42.161 24.58" fill="#727373"/><polyline points="49.049 25.246 49.468 25.072 49.642 24.653 49.468 24.234 49.049 24.061 48.63 24.234 48.457 24.653 48.63 25.072 49.049 25.246" fill="#727373"/><polyline points="45.494 22.803 45.913 22.629 46.086 22.21 45.913 21.791 45.494 21.618 45.075 21.791 44.901 22.21 45.075 22.629 45.494 22.803" fill="#727373"/><polyline points="46.16 26.58 46.579 26.406 46.752 25.987 46.579 25.568 46.16 25.395 45.741 25.568 45.567 25.987 45.741 26.406 46.16 26.58" fill="#727373"/><polyline points="55.494 31.912 55.913 31.738 56.086 31.319 55.913 30.9 55.494 30.727 55.075 30.9 54.901 31.319 55.075 31.738 55.494 31.912" fill="#727373"/><polyline points="50.382 35.025 50.801 34.852 50.975 34.433 50.801 34.014 50.382 33.84 49.963 34.014 49.79 34.433 49.963 34.852 50.382 35.025" fill="#727373"/><polyline points="42.827 33.469 43.246 33.295 43.419 32.876 43.246 32.457 42.827 32.283 42.408 32.457 42.234 32.876 42.408 33.295 42.827 33.469" fill="#727373"/><polyline points="42.604 37.023 43.023 36.85 43.197 36.431 43.023 36.012 42.604 35.838 42.185 36.012 42.011 36.431 42.185 36.85 42.604 37.023" fill="#727373"/><polyline points="42.604 39.689 43.023 39.516 43.197 39.097 43.023 38.678 42.604 38.504 42.185 38.678 42.011 39.097 42.185 39.516 42.604 39.689" fill="#727373"/><polyline points="52.382 41.469 52.801 41.295 52.975 40.876 52.801 40.457 52.382 40.283 51.963 40.457 51.79 40.876 51.963 41.295 52.382 41.469" fill="#727373"/><polyline points="55.938 43.914 56.357 43.74 56.53 43.321 56.357 42.902 55.938 42.729 55.519 42.902 55.345 43.321 55.519 43.74 55.938 43.914" fill="#727373"/><polyline points="60.827 39.246 61.245 39.072 61.419 38.653 61.246 38.234 60.827 38.061 60.407 38.234 60.234 38.653 60.408 39.072 60.827 39.246" fill="#727373"/><polyline points="54.827 35.025 55.246 34.852 55.419 34.433 55.246 34.014 54.827 33.84 54.408 34.014 54.234 34.433 54.408 34.852 54.827 35.025" fill="#727373"/><polyline points="28.826 42.135 29.245 41.961 29.418 41.542 29.245 41.123 28.826 40.949 28.407 41.123 28.233 41.542 28.407 41.961 28.826 42.135" fill="#727373"/><polyline points="23.271 33.914 23.69 33.74 23.864 33.321 23.69 32.902 23.271 32.729 22.852 32.902 22.679 33.321 22.852 33.74 23.271 33.914" fill="#727373"/><polyline points="26.382 31.912 26.801 31.738 26.975 31.319 26.802 30.9 26.382 30.727 25.963 30.9 25.79 31.319 25.963 31.738 26.382 31.912" fill="#727373"/><polyline points="9.271 26.58 9.69 26.406 9.864 25.987 9.69 25.568 9.271 25.395 8.852 25.568 8.679 25.987 8.852 26.406 9.271 26.58" fill="#727373"/><polyline points="5.271 28.357 5.69 28.184 5.864 27.765 5.69 27.346 5.271 27.172 4.852 27.346 4.679 27.765 4.852 28.184 5.271 28.357" fill="#727373"/><polyline points="2.16 31.691 2.579 31.518 2.753 31.099 2.579 30.68 2.16 30.506 1.741 30.68 1.567 31.099 1.741 31.518 2.16 31.691" fill="#727373"/><polyline points="15.049 37.691 15.468 37.518 15.641 37.099 15.468 36.68 15.049 36.506 14.63 36.68 14.456 37.099 14.63 37.518 15.049 37.691" fill="#727373"/><polyline points="12.382 30.58 12.801 30.406 12.974 29.987 12.801 29.568 12.382 29.395 11.963 29.568 11.789 29.987 11.963 30.406 12.382 30.58" fill="#727373"/><polyline points="23.494 27.246 23.913 27.072 24.086 26.653 23.913 26.234 23.494 26.061 23.075 26.234 22.901 26.653 23.075 27.072 23.494 27.246" fill="#727373"/><polyline points="36.827 28.357 37.246 28.184 37.419 27.765 37.246 27.346 36.827 27.172 36.408 27.346 36.234 27.765 36.408 28.184 36.827 28.357" fill="#727373"/><polyline points="33.048 28.357 33.467 28.184 33.641 27.765 33.467 27.346 33.048 27.172 32.629 27.346 32.456 27.765 32.629 28.184 33.048 28.357" fill="#727373"/><polyline points="27.049 35.691 27.468 35.518 27.642 35.099 27.468 34.68 27.049 34.506 26.63 34.68 26.457 35.099 26.63 35.518 27.049 35.691" fill="#727373"/><polyline points="5.716 18.58 6.135 18.407 6.308 17.988 6.135 17.568 5.716 17.395 5.297 17.568 5.123 17.988 5.297 18.407 5.716 18.58" fill="#727373"/><polyline points="8.604 17.023 9.023 16.85 9.197 16.431 9.023 16.012 8.604 15.838 8.185 16.012 8.012 16.431 8.185 16.85 8.604 17.023" fill="#727373"/><polyline points="10.383 21.248 10.802 21.074 10.975 20.655 10.802 20.236 10.383 20.063 9.964 20.236 9.79 20.655 9.964 21.074 10.383 21.248" fill="#727373"/><polyline points="2.605 23.246 3.024 23.073 3.198 22.654 3.024 22.234 2.605 22.061 2.186 22.234 2.013 22.654 2.186 23.073 2.605 23.246" fill="#727373"/><polyline points="57.048 26.58 57.467 26.406 57.641 25.987 57.467 25.568 57.048 25.395 56.629 25.568 56.456 25.987 56.629 26.406 57.048 26.58" fill="#727373"/><polyline points="61.715 26.803 62.134 26.629 62.308 26.21 62.134 25.791 61.715 25.618 61.296 25.791 61.123 26.21 61.296 26.629 61.715 26.803" fill="#727373"/><polyline points="1.271 8.357 1.69 8.184 1.864 7.765 1.69 7.346 1.271 7.172 0.852 7.346 0.679 7.765 0.852 8.184 1.271 8.357" fill="#727373"/><polyline points="15.716 6.358 16.135 6.184 16.308 5.765 16.135 5.346 15.716 5.172 15.297 5.346 15.123 5.765 15.297 6.184 15.716 6.358" fill="#727373"/><polyline points="3.271 5.69 3.69 5.516 3.864 5.097 3.69 4.678 3.271 4.504 2.852 4.678 2.679 5.097 2.852 5.516 3.271 5.69" fill="#727373"/><polyline points="11.271 13.023 11.69 12.85 11.864 12.431 11.69 12.012 11.271 11.838 10.852 12.012 10.679 12.431 10.852 12.85 11.271 13.023" fill="#727373"/><polyline points="16.383 17.469 16.802 17.295 16.975 16.876 16.802 16.457 16.383 16.284 15.964 16.457 15.79 16.876 15.964 17.295 16.383 17.469" fill="#727373"/><polyline points="18.827 33.248 19.246 33.074 19.419 32.655 19.246 32.236 18.827 32.063 18.408 32.236 18.234 32.655 18.408 33.074 18.827 33.248" fill="#727373"/><polyline points="0.604 39.689 1.023 39.516 1.197 39.097 1.023 38.678 0.604 38.504 0.185 38.678 0.012 39.097 0.185 39.516 0.604 39.689" fill="#727373"/><polyline points="61.715 58.802 62.134 58.629 62.308 58.21 62.134 57.791 61.715 57.617 61.296 57.791 61.123 58.21 61.296 58.629 61.715 58.802" fill="#727373"/><polyline points="51.049 61.693 51.468 61.519 51.642 61.1 51.468 60.681 51.049 60.508 50.63 60.681 50.457 61.1 50.63 61.519 51.049 61.693" fill="#727373"/><polyline points="35.938 60.802 36.357 60.629 36.531 60.21 36.357 59.791 35.938 59.617 35.519 59.791 35.345 60.21 35.519 60.629 35.938 60.802" fill="#727373"/><polyline points="3.938 53.691 4.357 53.518 4.531 53.099 4.357 52.679 3.938 52.506 3.519 52.679 3.346 53.099 3.519 53.518 3.938 53.691" fill="#727373"/><polyline points="23.494 53.246 23.913 53.072 24.086 52.653 23.913 52.234 23.494 52.061 23.075 52.234 22.901 52.653 23.075 53.072 23.494 53.246" fill="#727373"/><polyline points="33.048 43.469 33.467 43.295 33.641 42.876 33.467 42.457 33.048 42.283 32.629 42.457 32.456 42.876 32.629 43.295 33.048 43.469" fill="#727373"/><polyline points="7.716 36.135 8.135 35.961 8.308 35.542 8.135 35.123 7.716 34.949 7.297 35.123 7.123 35.542 7.297 35.961 7.716 36.135" fill="#727373"/><polyline points="46.381 34.135 46.8 33.961 46.974 33.542 46.8 33.123 46.381 32.949 45.962 33.123 45.789 33.542 45.962 33.961 46.381 34.135" fill="#727373"/><polyline points="57.494 41.023 57.913 40.85 58.086 40.431 57.913 40.012 57.494 39.838 57.074 40.012 56.901 40.431 57.075 40.85 57.494 41.023" fill="#727373"/><polyline points="45.494 59.246 45.913 59.072 46.086 58.653 45.913 58.234 45.494 58.061 45.075 58.234 44.901 58.653 45.075 59.072 45.494 59.246" fill="#727373"/><polyline points="35.494 33.914 35.913 33.74 36.086 33.321 35.913 32.902 35.494 32.729 35.075 32.902 34.901 33.321 35.075 33.74 35.494 33.914" fill="#727373"/><polyline points="24.382 12.357 24.801 12.184 24.974 11.765 24.801 11.346 24.382 11.172 23.962 11.346 23.789 11.765 23.963 12.184 24.382 12.357" fill="#727373"/><polyline points="17.493 23.914 17.912 23.74 18.085 23.321 17.912 22.902 17.493 22.729 17.074 22.902 16.9 23.321 17.074 23.74 17.493 23.914" fill="#727373"/><polyline points="10.383 1.912 10.802 1.739 10.975 1.32 10.802 0.901 10.383 0.727 9.964 0.901 9.79 1.32 9.964 1.739 10.383 1.912" fill="#727373"/><polyline points="49.049 3.692 49.468 3.518 49.642 3.099 49.468 2.68 49.049 2.506 48.63 2.68 48.457 3.099 48.63 3.518 49.049 3.692" fill="#727373"/><polyline points="42.604 61.693 43.023 61.519 43.197 61.1 43.023 60.681 42.604 60.508 42.185 60.681 42.011 61.1 42.185 61.519 42.604 61.693" fill="#727373"/><polyline points="3.271 36.582 3.69 36.408 3.864 35.989 3.69 35.57 3.271 35.397 2.852 35.57 2.679 35.989 2.852 36.408 3.271 36.582" fill="#727373"/><polyline points="61.049 12.135 61.468 11.961 61.642 11.542 61.468 11.123 61.049 10.95 60.63 11.123 60.457 11.542 60.63 11.961 61.049 12.135" fill="#727373"/><polyline points="20.604 12.803 21.023 12.629 21.197 12.21 21.023 11.791 20.604 11.618 20.185 11.791 20.012 12.21 20.185 12.629 20.604 12.803" fill="#727373"/><polyline points="17.493 15.025 17.912 14.852 18.085 14.433 17.912 14.014 17.493 13.84 17.074 14.014 16.9 14.433 17.074 14.852 17.493 15.025" fill="#727373"/><polyline points="13.049 15.691 13.468 15.518 13.641 15.099 13.468 14.68 13.049 14.506 12.63 14.68 12.456 15.099 12.63 15.518 13.049 15.691" fill="#727373"/><polyline points="5.271 10.801 5.69 10.627 5.864 10.208 5.69 9.789 5.271 9.616 4.852 9.789 4.679 10.208 4.852 10.627 5.271 10.801" fill="#727373"/><polyline points="6.16 2.803 6.579 2.629 6.753 2.21 6.579 1.791 6.16 1.618 5.741 1.791 5.567 2.21 5.741 2.629 6.16 2.803" fill="#727373"/><polyline points="12.604 7.691 13.023 7.518 13.197 7.099 13.023 6.68 12.604 6.506 12.185 6.68 12.012 7.099 12.185 7.518 12.604 7.691" fill="#727373"/><polyline points="22.827 6.58 23.246 6.407 23.419 5.988 23.246 5.569 22.827 5.395 22.408 5.569 22.234 5.988 22.408 6.407 22.827 6.58" fill="#727373"/><polyline points="32.827 7.024 33.246 6.85 33.419 6.431 33.246 6.012 32.827 5.838 32.408 6.012 32.234 6.431 32.408 6.85 32.827 7.024" fill="#727373"/><polyline points="33.271 4.135 33.69 3.961 33.864 3.542 33.69 3.123 33.271 2.95 32.852 3.123 32.679 3.542 32.852 3.961 33.271 4.135" fill="#727373"/><polyline points="38.604 1.692 39.023 1.518 39.197 1.099 39.023 0.68 38.604 0.506 38.185 0.68 38.011 1.099 38.185 1.518 38.604 1.692" fill="#727373"/><polyline points="45.494 8.357 45.913 8.184 46.086 7.765 45.913 7.346 45.494 7.172 45.075 7.346 44.901 7.765 45.075 8.184 45.494 8.357" fill="#727373"/><polyline points="31.715 10.135 32.134 9.961 32.308 9.542 32.134 9.123 31.715 8.95 31.296 9.123 31.123 9.542 31.296 9.961 31.715 10.135" fill="#727373"/><polyline points="34.827 13.691 35.246 13.518 35.419 13.099 35.246 12.68 34.827 12.506 34.408 12.68 34.234 13.099 34.408 13.518 34.827 13.691" fill="#727373"/><polyline points="21.937 16.357 22.356 16.184 22.53 15.765 22.356 15.346 21.937 15.172 21.518 15.346 21.345 15.765 21.518 16.184 21.937 16.357" fill="#727373"/><polyline points="6.383 25.025 6.802 24.852 6.975 24.433 6.802 24.014 6.383 23.84 5.964 24.014 5.79 24.433 5.964 24.852 6.383 25.025" fill="#727373"/><polyline points="14.16 28.58 14.579 28.406 14.753 27.987 14.579 27.568 14.16 27.395 13.741 27.568 13.567 27.987 13.741 28.406 14.16 28.58" fill="#727373"/><polyline points="9.271 30.137 9.69 29.963 9.864 29.544 9.69 29.125 9.271 28.951 8.852 29.125 8.679 29.544 8.852 29.963 9.271 30.137" fill="#727373"/><polyline points="4.604 33.248 5.023 33.074 5.197 32.655 5.023 32.236 4.604 32.063 4.185 32.236 4.012 32.655 4.185 33.074 4.604 33.248" fill="#727373"/><polyline points="2.827 18.58 3.246 18.407 3.42 17.988 3.246 17.568 2.827 17.395 2.408 17.568 2.234 17.988 2.408 18.407 2.827 18.58" fill="#727373"/><polyline points="18.16 27.691 18.579 27.518 18.752 27.099 18.579 26.68 18.16 26.506 17.741 26.68 17.567 27.099 17.741 27.518 18.16 27.691" fill="#727373"/><polyline points="15.493 31.912 15.912 31.738 16.086 31.319 15.912 30.9 15.493 30.727 15.074 30.9 14.9 31.319 15.074 31.738 15.493 31.912" fill="#727373"/><polyline points="14.16 35.025 14.579 34.852 14.753 34.433 14.579 34.014 14.16 33.84 13.741 34.014 13.567 34.433 13.741 34.852 14.16 35.025" fill="#727373"/><polyline points="11.271 37.023 11.69 36.85 11.864 36.431 11.69 36.012 11.271 35.838 10.852 36.012 10.679 36.431 10.852 36.85 11.271 37.023" fill="#727373"/><polyline points="11.271 41.691 11.69 41.518 11.864 41.099 11.69 40.68 11.271 40.506 10.852 40.68 10.679 41.099 10.852 41.518 11.271 41.691" fill="#727373"/><polyline points="20.383 43.914 20.802 43.74 20.975 43.321 20.802 42.902 20.383 42.729 19.964 42.902 19.79 43.321 19.964 43.74 20.383 43.914" fill="#727373"/><polyline points="9.716 48.802 10.135 48.629 10.308 48.21 10.135 47.791 9.716 47.617 9.297 47.791 9.123 48.21 9.297 48.629 9.716 48.802" fill="#727373"/><polyline points="13.716 52.357 14.135 52.184 14.308 51.765 14.135 51.346 13.716 51.172 13.297 51.346 13.123 51.765 13.297 52.184 13.716 52.357" fill="#727373"/><polyline points="5.271 56.802 5.69 56.629 5.864 56.21 5.69 55.791 5.271 55.617 4.852 55.791 4.679 56.21 4.852 56.629 5.271 56.802" fill="#727373"/><polyline points="1.938 55.468 2.357 55.295 2.531 54.876 2.357 54.457 1.938 54.283 1.519 54.457 1.346 54.876 1.519 55.295 1.938 55.468" fill="#727373"/><polyline points="7.937 60.802 8.356 60.629 8.53 60.21 8.356 59.791 7.937 59.617 7.518 59.791 7.345 60.21 7.518 60.629 7.937 60.802" fill="#727373"/><polyline points="11.937 62.134 12.356 61.961 12.53 61.542 12.356 61.123 11.937 60.949 11.518 61.123 11.345 61.542 11.518 61.961 11.937 62.134" fill="#727373"/><polyline points="19.271 63.246 19.69 63.072 19.864 62.653 19.69 62.234 19.271 62.061 18.852 62.234 18.679 62.653 18.852 63.072 19.271 63.246" fill="#727373"/><polyline points="20.383 58.802 20.802 58.629 20.975 58.21 20.802 57.791 20.383 57.617 19.964 57.791 19.79 58.21 19.964 58.629 20.383 58.802" fill="#727373"/><polyline points="19.716 53.691 20.135 53.518 20.308 53.099 20.135 52.679 19.716 52.506 19.297 52.679 19.123 53.099 19.297 53.518 19.716 53.691" fill="#727373"/><polyline points="21.494 51.468 21.913 51.295 22.086 50.876 21.913 50.457 21.494 50.283 21.075 50.457 20.901 50.876 21.075 51.295 21.494 51.468" fill="#727373"/><polyline points="23.271 42.802 23.69 42.629 23.864 42.21 23.69 41.791 23.271 41.617 22.852 41.791 22.679 42.21 22.852 42.629 23.271 42.802" fill="#727373"/><polyline points="22.827 39.025 23.246 38.852 23.419 38.433 23.246 38.014 22.827 37.84 22.408 38.014 22.234 38.433 22.408 38.852 22.827 39.025" fill="#727373"/><polyline points="28.604 27.914 29.023 27.74 29.197 27.321 29.023 26.902 28.604 26.729 28.185 26.902 28.012 27.321 28.185 27.74 28.604 27.914" fill="#727373"/><polyline points="30.382 24.357 30.801 24.184 30.975 23.765 30.801 23.346 30.382 23.172 29.963 23.346 29.79 23.765 29.963 24.184 30.382 24.357" fill="#727373"/><polyline points="38.827 22.58 39.246 22.407 39.419 21.988 39.246 21.568 38.827 21.395 38.408 21.568 38.234 21.988 38.408 22.407 38.827 22.58" fill="#727373"/><polyline points="38.16 18.803 38.579 18.629 38.752 18.21 38.579 17.791 38.16 17.618 37.741 17.791 37.567 18.21 37.741 18.629 38.16 18.803" fill="#727373"/><polyline points="24.605 20.137 25.024 19.963 25.198 19.544 25.024 19.125 24.605 18.952 24.186 19.125 24.013 19.544 24.186 19.963 24.605 20.137" fill="#727373"/><polyline points="46.16 19.914 46.579 19.741 46.752 19.322 46.579 18.902 46.16 18.729 45.741 18.902 45.567 19.322 45.741 19.741 46.16 19.914" fill="#727373"/><polyline points="38.382 16.135 38.801 15.961 38.975 15.542 38.801 15.123 38.382 14.95 37.963 15.123 37.79 15.542 37.963 15.961 38.382 16.135" fill="#727373"/><polyline points="44.827 16.357 45.246 16.184 45.419 15.765 45.246 15.346 44.827 15.172 44.408 15.346 44.234 15.765 44.408 16.184 44.827 16.357" fill="#727373"/><polyline points="52.827 15.691 53.246 15.518 53.419 15.099 53.246 14.68 52.827 14.506 52.408 14.68 52.234 15.099 52.408 15.518 52.827 15.691" fill="#727373"/><polyline points="51.715 12.803 52.134 12.629 52.308 12.21 52.134 11.791 51.715 11.618 51.296 11.791 51.123 12.21 51.296 12.629 51.715 12.803" fill="#727373"/><polyline points="52.827 9.914 53.246 9.741 53.419 9.322 53.246 8.903 52.827 8.729 52.408 8.903 52.234 9.322 52.408 9.741 52.827 9.914" fill="#727373"/><polyline points="52.16 7.024 52.579 6.85 52.752 6.431 52.579 6.012 52.16 5.838 51.741 6.012 51.567 6.431 51.741 6.85 52.16 7.024" fill="#727373"/><polyline points="53.271 4.578 53.69 4.405 53.863 3.986 53.69 3.567 53.271 3.393 52.852 3.567 52.678 3.986 52.852 4.405 53.271 4.578" fill="#727373"/><polyline points="59.938 5.69 60.357 5.516 60.53 5.097 60.357 4.678 59.938 4.504 59.519 4.678 59.345 5.097 59.519 5.516 59.938 5.69" fill="#727373"/><polyline points="56.382 8.58 56.801 8.407 56.975 7.988 56.801 7.569 56.382 7.395 55.963 7.569 55.79 7.988 55.963 8.407 56.382 8.58" fill="#727373"/><polyline points="53.494 21.469 53.913 21.295 54.086 20.876 53.913 20.457 53.494 20.284 53.075 20.457 52.901 20.876 53.075 21.295 53.494 21.469" fill="#727373"/><polyline points="49.271 21.469 49.69 21.295 49.864 20.876 49.69 20.457 49.271 20.284 48.852 20.457 48.678 20.876 48.852 21.295 49.271 21.469" fill="#727373"/><polyline points="49.271 17.023 49.69 16.85 49.864 16.431 49.69 16.012 49.271 15.838 48.852 16.012 48.678 16.431 48.852 16.85 49.271 17.023" fill="#727373"/><polyline points="57.715 23.246 58.134 23.073 58.308 22.654 58.134 22.234 57.715 22.061 57.296 22.234 57.123 22.654 57.296 23.073 57.715 23.246" fill="#727373"/><polyline points="52.827 27.691 53.246 27.518 53.419 27.099 53.246 26.68 52.827 26.506 52.408 26.68 52.234 27.099 52.408 27.518 52.827 27.691" fill="#727373"/><polyline points="46.827 29.469 47.246 29.295 47.419 28.876 47.246 28.457 46.827 28.284 46.408 28.457 46.234 28.876 46.408 29.295 46.827 29.469" fill="#727373"/><polyline points="42.161 30.357 42.58 30.184 42.753 29.765 42.58 29.346 42.161 29.172 41.742 29.346 41.568 29.765 41.742 30.184 42.161 30.357" fill="#727373"/><polyline points="39.271 35.246 39.69 35.072 39.864 34.653 39.69 34.234 39.271 34.061 38.852 34.234 38.678 34.653 38.852 35.072 39.271 35.246" fill="#727373"/><polyline points="30.16 37.246 30.579 37.072 30.752 36.653 30.579 36.234 30.16 36.061 29.741 36.234 29.567 36.653 29.741 37.072 30.16 37.246" fill="#727373"/><polyline points="36.16 43.023 36.579 42.85 36.752 42.431 36.579 42.012 36.16 41.838 35.741 42.012 35.567 42.431 35.741 42.85 36.16 43.023" fill="#727373"/><polyline points="40.604 46.802 41.023 46.629 41.197 46.21 41.023 45.791 40.604 45.617 40.185 45.791 40.011 46.21 40.185 46.629 40.604 46.802" fill="#727373"/><polyline points="41.271 50.802 41.69 50.629 41.864 50.21 41.69 49.791 41.271 49.617 40.852 49.791 40.678 50.21 40.852 50.629 41.271 50.802" fill="#727373"/><polyline points="37.271 53.246 37.69 53.072 37.864 52.653 37.69 52.234 37.271 52.061 36.852 52.234 36.678 52.653 36.852 53.072 37.271 53.246" fill="#727373"/><polyline points="35.494 56.134 35.913 55.961 36.086 55.542 35.913 55.123 35.494 54.949 35.075 55.123 34.901 55.542 35.075 55.961 35.494 56.134" fill="#727373"/><polyline points="31.937 56.134 32.356 55.961 32.53 55.542 32.356 55.123 31.937 54.949 31.518 55.123 31.345 55.542 31.518 55.961 31.937 56.134" fill="#727373"/><polyline points="32.382 47.246 32.801 47.072 32.975 46.653 32.801 46.234 32.382 46.061 31.963 46.234 31.79 46.653 31.963 47.072 32.382 47.246" fill="#727373"/><polyline points="26.827 55.691 27.246 55.518 27.419 55.099 27.246 54.679 26.827 54.506 26.408 54.679 26.234 55.099 26.408 55.518 26.827 55.691" fill="#727373"/><polyline points="27.938 61.246 28.357 61.072 28.531 60.653 28.357 60.234 27.938 60.061 27.519 60.234 27.346 60.653 27.519 61.072 27.938 61.246" fill="#727373"/><polyline points="33.271 62.58 33.69 62.406 33.864 61.987 33.69 61.568 33.271 61.395 32.852 61.568 32.679 61.987 32.852 62.406 33.271 62.58" fill="#727373"/><polyline points="55.938 51.023 56.357 50.85 56.53 50.431 56.357 50.012 55.938 49.838 55.519 50.012 55.345 50.431 55.519 50.85 55.938 51.023" fill="#727373"/><polyline points="53.271 45.468 53.69 45.295 53.863 44.876 53.69 44.457 53.271 44.283 52.852 44.457 52.678 44.876 52.852 45.295 53.271 45.468" fill="#727373"/><polyline points="48.382 45.248 48.801 45.074 48.975 44.655 48.801 44.236 48.382 44.063 47.963 44.236 47.79 44.655 47.963 45.074 48.382 45.248" fill="#727373"/><polyline points="48.604 37.469 49.023 37.295 49.197 36.876 49.023 36.457 48.604 36.283 48.185 36.457 48.011 36.876 48.185 37.295 48.604 37.469" fill="#727373"/><polyline points="55.494 37.914 55.913 37.74 56.086 37.321 55.913 36.902 55.494 36.729 55.075 36.902 54.901 37.321 55.075 37.74 55.494 37.914" fill="#727373"/><polyline points="61.493 43.469 61.912 43.295 62.085 42.876 61.912 42.457 61.493 42.283 61.073 42.457 60.9 42.876 61.074 43.295 61.493 43.469" fill="#727373"/><polyline points="61.715 48.58 62.134 48.406 62.308 47.987 62.134 47.568 61.715 47.395 61.296 47.568 61.123 47.987 61.296 48.406 61.715 48.58" fill="#727373"/><polyline points="56.382 55.248 56.801 55.074 56.975 54.655 56.801 54.236 56.382 54.063 55.963 54.236 55.79 54.655 55.963 55.074 56.382 55.248" fill="#727373"/><polyline points="62.382 53.025 62.801 52.852 62.975 52.433 62.801 52.013 62.382 51.84 61.963 52.013 61.79 52.433 61.963 52.852 62.382 53.025" fill="#727373"/><polyline points="57.494 58.58 57.913 58.406 58.086 57.987 57.913 57.568 57.494 57.395 57.074 57.568 56.901 57.987 57.075 58.406 57.494 58.58" fill="#727373"/><polyline points="58.382 61.023 58.801 60.85 58.975 60.431 58.801 60.011 58.382 59.838 57.963 60.011 57.79 60.431 57.963 60.85 58.382 61.023" fill="#727373"/><polyline points="55.494 62.802 55.913 62.629 56.086 62.21 55.913 61.791 55.494 61.617 55.075 61.791 54.901 62.21 55.075 62.629 55.494 62.802" fill="#727373"/><polyline points="46.827 62.357 47.246 62.183 47.419 61.764 47.246 61.345 46.827 61.172 46.408 61.345 46.234 61.764 46.408 62.183 46.827 62.357" fill="#727373"/><polyline points="39.715 59.47 40.134 59.297 40.308 58.878 40.134 58.459 39.715 58.285 39.296 58.459 39.123 58.878 39.296 59.297 39.715 59.47" fill="#727373"/><polyline points="25.271 63.691 25.69 63.517 25.864 63.098 25.69 62.679 25.271 62.506 24.852 62.679 24.679 63.098 24.852 63.517 25.271 63.691" fill="#727373"/><polyline points="1.716 26.357 2.135 26.184 2.308 25.765 2.135 25.346 1.716 25.172 1.297 25.346 1.123 25.765 1.297 26.184 1.716 26.357" fill="#727373"/><polyline points="11.716 4.803 12.135 4.629 12.308 4.21 12.135 3.791 11.716 3.618 11.297 3.791 11.123 4.21 11.297 4.629 11.716 4.803" fill="#727373"/><polyline points="62.382 31.025 62.801 30.852 62.975 30.433 62.801 30.014 62.382 29.84 61.963 30.014 61.79 30.433 61.963 30.852 62.382 31.025" fill="#727373"/><polyline points="62.852 37.099 63.271 36.926 63.444 36.507 63.271 36.088 62.852 35.914 62.433 36.088 62.259 36.507 62.433 36.926 62.852 37.099" fill="#727373"/><polyline points="2.605 45.691 3.024 45.518 3.198 45.099 3.024 44.68 2.605 44.506 2.186 44.68 2.013 45.099 2.186 45.518 2.605 45.691" fill="#727373"/><polyline points="61.271 23.914 61.69 23.74 61.863 23.321 61.69 22.902 61.271 22.729 60.852 22.902 60.678 23.321 60.852 23.74 61.271 23.914" fill="#727373"/><polyline points="59.938 55.248 60.357 55.074 60.53 54.655 60.357 54.236 59.938 54.063 59.519 54.236 59.345 54.655 59.519 55.074 59.938 55.248" fill="#727373"/><polyline points="0.753 51.666 1.172 51.492 1.345 51.073 1.172 50.654 0.753 50.481 0.334 50.654 0.16 51.073 0.334 51.492 0.753 51.666" fill="#727373"/><polyline points="2.382 63.691 2.801 63.517 2.974 63.098 2.801 62.679 2.382 62.506 1.963 62.679 1.789 63.098 1.963 63.517 2.382 63.691" fill="#727373"/><polyline points="63.122 21.135 63.541 20.961 63.715 20.542 63.541 20.123 63.122 19.95 62.703 20.123 62.53 20.542 62.703 20.961 63.122 21.135" fill="#727373"/><polyline points="1.049 15.246 1.468 15.073 1.641 14.654 1.468 14.235 1.049 14.061 0.63 14.235 0.456 14.654 0.63 15.073 1.049 15.246" fill="#727373"/><polyline points="15.938 11.691 16.357 11.518 16.531 11.099 16.357 10.68 15.938 10.506 15.519 10.68 15.346 11.099 15.519 11.518 15.938 11.691" fill="#727373"/><polyline points="25.938 9.246 26.357 9.073 26.531 8.654 26.357 8.235 25.938 8.061 25.519 8.235 25.346 8.654 25.519 9.073 25.938 9.246" fill="#727373"/><polyline points="23.716 3.692 24.135 3.518 24.308 3.099 24.135 2.68 23.716 2.506 23.296 2.68 23.123 3.099 23.297 3.518 23.716 3.692" fill="#727373"/><polyline points="35.715 9.469 36.134 9.295 36.308 8.876 36.134 8.457 35.715 8.284 35.296 8.457 35.123 8.876 35.296 9.295 35.715 9.469" fill="#727373"/><polyline points="41.049 9.469 41.468 9.295 41.642 8.876 41.468 8.457 41.049 8.284 40.63 8.457 40.457 8.876 40.63 9.295 41.049 9.469" fill="#727373"/><polyline points="41.937 20.58 42.356 20.407 42.53 19.988 42.356 19.568 41.937 19.395 41.518 19.568 41.344 19.988 41.518 20.407 41.937 20.58" fill="#727373"/><polyline points="48.604 6.358 49.023 6.184 49.197 5.765 49.023 5.346 48.604 5.172 48.185 5.346 48.011 5.765 48.185 6.184 48.604 6.358" fill="#727373"/><polyline points="56.827 6.137 57.246 5.963 57.419 5.544 57.246 5.125 56.827 4.952 56.408 5.125 56.234 5.544 56.408 5.963 56.827 6.137" fill="#727373"/><polyline points="55.715 2.135 56.134 1.961 56.308 1.542 56.134 1.123 55.715 0.95 55.296 1.123 55.123 1.542 55.296 1.961 55.715 2.135" fill="#727373"/><polyline points="61.715 16.357 62.134 16.184 62.308 15.765 62.134 15.346 61.715 15.172 61.296 15.346 61.123 15.765 61.296 16.184 61.715 16.357" fill="#727373"/><polyline points="7.05 42.135 7.469 41.961 7.642 41.542 7.469 41.123 7.05 40.949 6.631 41.123 6.457 41.542 6.631 41.961 7.05 42.135" fill="#727373"/><polyline points="4.382 50.802 4.801 50.629 4.974 50.21 4.801 49.791 4.382 49.617 3.963 49.791 3.789 50.21 3.963 50.629 4.382 50.802" fill="#727373"/><polyline points="2.827 58.802 3.246 58.629 3.42 58.21 3.246 57.791 2.827 57.617 2.408 57.791 2.234 58.21 2.408 58.629 2.827 58.802" fill="#727373"/><polyline points="15.716 62.357 16.135 62.183 16.308 61.764 16.135 61.345 15.716 61.172 15.297 61.345 15.123 61.764 15.297 62.183 15.716 62.357" fill="#727373"/><polyline points="18.604 56.357 19.023 56.184 19.197 55.765 19.023 55.345 18.604 55.172 18.185 55.345 18.012 55.765 18.185 56.184 18.604 56.357" fill="#727373"/><polyline points="18.604 40.58 19.023 40.406 19.197 39.987 19.023 39.568 18.604 39.395 18.185 39.568 18.012 39.987 18.185 40.406 18.604 40.58" fill="#727373"/><polyline points="25.271 45.691 25.69 45.518 25.864 45.099 25.69 44.68 25.271 44.506 24.852 44.68 24.679 45.099 24.852 45.518 25.271 45.691" fill="#727373"/><polyline points="32.382 53.691 32.801 53.518 32.975 53.099 32.801 52.679 32.382 52.506 31.963 52.679 31.79 53.099 31.963 53.518 32.382 53.691" fill="#727373"/><polyline points="30.382 59.691 30.801 59.517 30.975 59.098 30.801 58.679 30.382 58.506 29.963 58.679 29.79 59.098 29.963 59.517 30.382 59.691" fill="#727373"/><polyline points="37.048 49.246 37.467 49.072 37.641 48.653 37.467 48.234 37.048 48.061 36.629 48.234 36.456 48.653 36.629 49.072 37.048 49.246" fill="#727373"/><polyline points="46.381 53.468 46.8 53.295 46.974 52.876 46.8 52.457 46.381 52.283 45.962 52.457 45.789 52.876 45.962 53.295 46.381 53.468" fill="#727373"/><polyline points="43.937 56.58 44.356 56.406 44.53 55.987 44.356 55.568 43.937 55.395 43.518 55.568 43.344 55.987 43.518 56.406 43.937 56.58" fill="#727373"/><polyline points="48.827 58.359 49.246 58.185 49.419 57.766 49.246 57.347 48.827 57.174 48.408 57.347 48.234 57.766 48.408 58.185 48.827 58.359" fill="#727373"/><polyline points="22.383 22.135 22.802 21.961 22.975 21.542 22.802 21.123 22.383 20.95 21.963 21.123 21.79 21.542 21.964 21.961 22.383 22.135" fill="#727373"/><polyline points="31.271 21.023 31.69 20.85 31.864 20.431 31.69 20.012 31.271 19.838 30.852 20.012 30.679 20.431 30.852 20.85 31.271 21.023" fill="#727373"/><polyline points="37.715 25.469 38.134 25.295 38.308 24.876 38.134 24.457 37.715 24.284 37.296 24.457 37.123 24.876 37.296 25.295 37.715 25.469" fill="#727373"/><polyline points="46.16 38.58 46.579 38.406 46.752 37.987 46.579 37.568 46.16 37.395 45.741 37.568 45.567 37.987 45.741 38.406 46.16 38.58" fill="#727373"/><polyline points="59.493 46.359 59.912 46.186 60.085 45.767 59.912 45.348 59.493 45.174 59.074 45.348 58.9 45.767 59.074 46.186 59.493 46.359" fill="#727373"/><polyline points="41.937 42.802 42.356 42.629 42.53 42.21 42.356 41.791 41.937 41.617 41.518 41.791 41.344 42.21 41.518 42.629 41.937 42.802" fill="#727373"/><polyline points="32.827 39.914 33.246 39.74 33.419 39.321 33.246 38.902 32.827 38.729 32.408 38.902 32.234 39.321 32.408 39.74 32.827 39.914" fill="#727373"/><polyline points="15.049 25.691 15.468 25.518 15.641 25.099 15.468 24.68 15.049 24.506 14.63 24.68 14.456 25.099 14.63 25.518 15.049 25.691" fill="#727373"/><polyline points="9.937 33.023 10.356 32.85 10.53 32.431 10.356 32.012 9.937 31.838 9.518 32.012 9.345 32.431 9.518 32.85 9.937 33.023" fill="#727373"/><polyline points="58.605 29.246 59.024 29.072 59.197 28.653 59.024 28.234 58.605 28.061 58.186 28.234 58.012 28.653 58.186 29.072 58.605 29.246" fill="#727373"/><polyline points="6.383 14.357 6.802 14.184 6.975 13.765 6.802 13.346 6.383 13.172 5.964 13.346 5.79 13.765 5.964 14.184 6.383 14.357" fill="#727373"/><polyline points="7.493 5.025 7.912 4.852 8.086 4.433 7.912 4.014 7.493 3.84 7.074 4.014 6.9 4.433 7.074 4.852 7.493 5.025" fill="#727373"/><polyline points="3.049 2.58 3.468 2.407 3.641 1.988 3.468 1.569 3.049 1.395 2.63 1.569 2.456 1.988 2.63 2.407 3.049 2.58" fill="#727373"/><polyline points="59.049 33.469 59.468 33.295 59.642 32.876 59.468 32.457 59.049 32.283 58.63 32.457 58.457 32.876 58.63 33.295 59.049 33.469" fill="#727373"/><polyline points="39.049 56.357 39.468 56.184 39.642 55.765 39.468 55.345 39.049 55.172 38.63 55.345 38.457 55.765 38.63 56.184 39.049 56.357" fill="#727373"/><polyline points="22.827 62.58 23.246 62.406 23.419 61.987 23.246 61.568 22.827 61.395 22.408 61.568 22.234 61.987 22.408 62.406 22.827 62.58" fill="#727373"/><polyline points="19.494 37.469 19.913 37.295 20.086 36.876 19.913 36.457 19.494 36.283 19.075 36.457 18.901 36.876 19.075 37.295 19.494 37.469" fill="#727373"/><polyline points="36.827 31.025 37.246 30.852 37.419 30.433 37.246 30.014 36.827 29.84 36.408 30.014 36.234 30.433 36.408 30.852 36.827 31.025" fill="#727373"/><polyline points="58.827 36.357 59.246 36.184 59.419 35.765 59.246 35.346 58.827 35.172 58.407 35.346 58.234 35.765 58.408 36.184 58.827 36.357" fill="#727373"/><polyline points="47.271 13.691 47.69 13.518 47.864 13.099 47.69 12.68 47.271 12.506 46.852 12.68 46.678 13.099 46.852 13.518 47.271 13.691" fill="#727373"/><polyline points="33.715 16.135 34.134 15.961 34.308 15.542 34.134 15.123 33.715 14.95 33.296 15.123 33.123 15.542 33.296 15.961 33.715 16.135" fill="#727373"/><polyline points="11.494 18.135 11.913 17.961 12.087 17.542 11.913 17.123 11.494 16.95 11.075 17.123 10.901 17.542 11.075 17.961 11.494 18.135" fill="#727373"/><polyline points="43.937 4.358 44.356 4.184 44.53 3.765 44.356 3.346 43.937 3.172 43.518 3.346 43.344 3.765 43.518 4.184 43.937 4.358" fill="#727373"/><polyline points="52.382 18.803 52.801 18.629 52.975 18.21 52.801 17.791 52.382 17.618 51.963 17.791 51.79 18.21 51.963 18.629 52.382 18.803" fill="#727373"/><polyline points="59.938 51.246 60.357 51.072 60.53 50.653 60.357 50.234 59.938 50.061 59.519 50.234 59.345 50.653 59.519 51.072 59.938 51.246" fill="#727373"/><polyline points="4.604 62.357 5.023 62.183 5.197 61.764 5.023 61.345 4.604 61.172 4.185 61.345 4.012 61.764 4.185 62.183 4.604 62.357" fill="#727373"/><polyline points="2.382 12.135 2.801 11.961 2.974 11.542 2.801 11.123 2.382 10.95 1.963 11.123 1.789 11.542 1.963 11.961 2.382 12.135" fill="#727373"/><polyline points="15.049 2.803 15.468 2.629 15.641 2.21 15.468 1.791 15.049 1.618 14.63 1.791 14.456 2.21 14.63 2.629 15.049 2.803" fill="#727373"/><polyline points="37.715 4.358 38.134 4.184 38.308 3.765 38.134 3.346 37.715 3.172 37.296 3.346 37.123 3.765 37.296 4.184 37.715 4.358" fill="#727373"/><polyline points="2.382 28.803 2.801 28.629 2.974 28.21 2.801 27.791 2.382 27.618 1.963 27.791 1.789 28.21 1.963 28.629 2.382 28.803" fill="#727373"/><polyline points="6.604 22.58 7.023 22.407 7.197 21.988 7.023 21.568 6.604 21.395 6.185 21.568 6.012 21.988 6.185 22.407 6.604 22.58" fill="#727373"/><polyline points="2.827 42.357 3.246 42.184 3.42 41.765 3.246 41.346 2.827 41.172 2.408 41.346 2.234 41.765 2.408 42.184 2.827 42.357" fill="#727373"/><polyline points="9.716 45.248 10.135 45.074 10.308 44.655 10.135 44.236 9.716 44.063 9.297 44.236 9.123 44.655 9.297 45.074 9.716 45.248" fill="#727373"/><polyline points="8.827 53.468 9.246 53.295 9.42 52.876 9.246 52.457 8.827 52.283 8.408 52.457 8.234 52.876 8.408 53.295 8.827 53.468" fill="#727373"/><polyline points="11.937 58.802 12.356 58.629 12.53 58.21 12.356 57.791 11.937 57.617 11.518 57.791 11.345 58.21 11.518 58.629 11.937 58.802" fill="#727373"/><polyline points="19.494 47.691 19.913 47.518 20.086 47.099 19.913 46.68 19.494 46.506 19.075 46.68 18.901 47.099 19.075 47.518 19.494 47.691" fill="#727373"/><polyline points="30.16 30.58 30.579 30.406 30.752 29.987 30.579 29.568 30.16 29.395 29.741 29.568 29.567 29.987 29.741 30.406 30.16 30.58" fill="#727373"/><polyline points="23.049 30.58 23.468 30.406 23.641 29.987 23.468 29.568 23.049 29.395 22.629 29.568 22.456 29.987 22.63 30.406 23.049 30.58" fill="#727373"/><polyline points="33.048 25.691 33.467 25.518 33.641 25.099 33.467 24.68 33.048 24.506 32.629 24.68 32.456 25.099 32.629 25.518 33.048 25.691" fill="#727373"/><polyline points="54.382 24.357 54.801 24.184 54.975 23.765 54.801 23.346 54.382 23.172 53.963 23.346 53.79 23.765 53.963 24.184 54.382 24.357" fill="#727373"/><polyline points="52.16 51.023 52.579 50.85 52.752 50.431 52.579 50.012 52.16 49.838 51.741 50.012 51.567 50.431 51.741 50.85 52.16 51.023" fill="#727373"/><polyline points="52.16 38.135 52.579 37.961 52.752 37.542 52.579 37.123 52.16 36.949 51.741 37.123 51.567 37.542 51.741 37.961 52.16 38.135" fill="#727373"/><polyline points="49.493 31.912 49.912 31.738 50.085 31.319 49.912 30.9 49.493 30.727 49.074 30.9 48.9 31.319 49.074 31.738 49.493 31.912" fill="#727373"/><polyline points="61.493 63.025 61.912 62.851 62.085 62.432 61.912 62.013 61.493 61.84 61.073 62.013 60.9 62.432 61.074 62.851 61.493 63.025" fill="#727373"/><polyline points="53.937 58.802 54.356 58.629 54.529 58.21 54.356 57.791 53.937 57.617 53.518 57.791 53.344 58.21 53.518 58.629 53.937 58.802" fill="#727373"/><polyline points="38.778 62.777 39.197 62.603 39.37 62.184 39.197 61.765 38.778 61.592 38.359 61.765 38.185 62.184 38.359 62.603 38.778 62.777" fill="#727373"/><polyline points="21.716 1.246 22.135 1.073 22.308 0.654 22.135 0.235 21.716 0.061 21.297 0.235 21.123 0.654 21.297 1.073 21.716 1.246" fill="#727373"/><polyline points="25.049 59.968 25.468 59.795 25.641 59.376 25.468 58.957 25.049 58.783 24.629 58.957 24.456 59.376 24.63 59.795 25.049 59.968" fill="#727373"/><polyline points="30.827 33.469 31.246 33.295 31.419 32.876 31.246 32.457 30.827 32.283 30.408 32.457 30.234 32.876 30.408 33.295 30.827 33.469" fill="#727373"/><polyline points="35.048 36.803 35.467 36.629 35.641 36.21 35.467 35.791 35.048 35.617 34.629 35.791 34.456 36.21 34.629 36.629 35.048 36.803" fill="#727373"/><polyline points="52.382 30.137 52.801 29.963 52.975 29.544 52.801 29.125 52.382 28.951 51.963 29.125 51.79 29.544 51.963 29.963 52.382 30.137" fill="#727373"/><polyline points="6.383 38.58 6.802 38.406 6.975 37.987 6.802 37.568 6.383 37.395 5.964 37.568 5.79 37.987 5.964 38.406 6.383 38.58" fill="#727373"/><polyline points="9.049 8.58 9.468 8.407 9.641 7.988 9.468 7.569 9.049 7.395 8.63 7.569 8.456 7.988 8.63 8.407 9.049 8.58" fill="#727373"/><polyline points="41.049 27.58 41.468 27.406 41.642 26.987 41.468 26.568 41.049 26.395 40.63 26.568 40.457 26.987 40.63 27.406 41.049 27.58" fill="#727373"/><polyline points="14.382 20.357 14.801 20.184 14.974 19.765 14.801 19.346 14.382 19.172 13.963 19.346 13.789 19.765 13.963 20.184 14.382 20.357" fill="#727373"/><polyline points="21.494 9.69 21.913 9.516 22.086 9.097 21.913 8.678 21.494 8.504 21.075 8.678 20.901 9.097 21.075 9.516 21.494 9.69" fill="#727373"/><polyline points="5.938 7.912 6.357 7.739 6.531 7.32 6.357 6.901 5.938 6.727 5.519 6.901 5.346 7.32 5.519 7.739 5.938 7.912" fill="#727373"/><polyline points="5.716 30.58 6.135 30.406 6.308 29.987 6.135 29.568 5.716 29.395 5.297 29.568 5.123 29.987 5.297 30.406 5.716 30.58" fill="#727373"/><polyline points="19.494 30.137 19.913 29.963 20.086 29.544 19.913 29.125 19.494 28.951 19.075 29.125 18.901 29.544 19.075 29.963 19.494 30.137" fill="#727373"/><polyline points="26.382 39.689 26.801 39.516 26.975 39.097 26.802 38.678 26.382 38.504 25.963 38.678 25.79 39.097 25.963 39.516 26.382 39.689" fill="#727373"/><polyline points="56.16 48.134 56.579 47.961 56.752 47.542 56.579 47.123 56.16 46.949 55.741 47.123 55.567 47.542 55.741 47.961 56.16 48.134" fill="#727373"/><polyline points="19.049 60.802 19.468 60.629 19.641 60.21 19.468 59.791 19.049 59.617 18.63 59.791 18.456 60.21 18.63 60.629 19.049 60.802" fill="#727373"/><polyline points="44.16 1.469 44.579 1.295 44.752 0.876 44.579 0.457 44.16 0.284 43.741 0.457 43.567 0.876 43.741 1.295 44.16 1.469" fill="#727373"/><polyline points="62.852 56.357 63.271 56.184 63.444 55.765 63.271 55.345 62.852 55.172 62.433 55.345 62.259 55.765 62.433 56.184 62.852 56.357" fill="#727373"/><polyline points="62.604 3.914 63.023 3.741 63.196 3.322 63.023 2.903 62.604 2.729 62.185 2.903 62.011 3.322 62.185 3.741 62.604 3.914" fill="#727373"/><polyline points="63.098 45.371 63.517 45.197 63.691 44.778 63.517 44.359 63.098 44.186 62.679 44.359 62.505 44.778 62.679 45.197 63.098 45.371" fill="#727373"/><polyline points="62.604 10.135 63.023 9.961 63.196 9.542 63.023 9.123 62.604 8.95 62.185 9.123 62.011 9.542 62.185 9.961 62.604 10.135" fill="#727373"/><polyline points="63.049 34.359 63.468 34.186 63.642 33.767 63.468 33.348 63.049 33.174 62.63 33.348 62.457 33.767 62.63 34.186 63.049 34.359" fill="#727373"/><polyline points="35.271 1.912 35.69 1.739 35.864 1.32 35.69 0.901 35.271 0.727 34.852 0.901 34.678 1.32 34.852 1.739 35.271 1.912" fill="#727373"/><path d="M18.6042,3.5792a1.1482,1.1482,0,1,0-.8118-.3363,1.1557,1.1557,0,0,0,.8118.3363" fill="#727373"/><path d="M28.16,11.3564a1.1482,1.1482,0,1,0-.8118-.3363,1.1559,1.1559,0,0,0,.8118.3363" fill="#727373"/><path d="M60.3822,19.8017a1.1482,1.1482,0,1,0-.8119-.3363,1.1557,1.1557,0,0,0,.8119.3363" fill="#727373"/><path d="M36.4937,43.8386a1.1482,1.1482,0,1,0-.8118-.3363,1.1557,1.1557,0,0,0,.8118.3363" fill="#727373"/><path d="M27.4928,53.358a1.1482,1.1482,0,1,0-.8118-.3363,1.1557,1.1557,0,0,0,.8118.3363" fill="#727373"/><path d="M48.8266,49.1354a1.1482,1.1482,0,1,0-.8118-.3363,1.1557,1.1557,0,0,0,.8118.3363" fill="#727373"/><path d="M9.3455,27.4325a1.1482,1.1482,0,1,0-.8118-.3363,1.1557,1.1557,0,0,0,.8118.3363" fill="#727373"/><path d="M5.493,11.8017a1.1482,1.1482,0,1,0-.8118-.3363,1.1557,1.1557,0,0,0,.8118.3363" fill="#727373"/><path d="M17.864,15.5068a1.1482,1.1482,0,1,0-.8118-.3363,1.1555,1.1555,0,0,0,.8118.3363" fill="#727373"/><path d="M30.3824,24.9129a1.1482,1.1482,0,1,0-.8118-.3363,1.1553,1.1553,0,0,0,.8118.3363" fill="#727373"/><path d="M44.8267,16.913a1.1482,1.1482,0,1,0-.8119-.3363,1.1557,1.1557,0,0,0,.8119.3363" fill="#727373"/><path d="M53.2709,5.1338a1.1482,1.1482,0,1,0-.8118-.3363,1.1555,1.1555,0,0,0,.8118.3363" fill="#727373"/><path d="M42.9751,34.1355a1.1482,1.1482,0,1,0-.8118-.3363,1.1555,1.1555,0,0,0,.8118.3363" fill="#727373"/><path d="M62.8519,37.655a1.1482,1.1482,0,1,0-.8119-.3363,1.1557,1.1557,0,0,0,.8119.3363" fill="#727373"/><path d="M10.1229,45.8034a1.1482,1.1482,0,1,0-.8119-.3363,1.1557,1.1557,0,0,0,.8119.3363" fill="#727373"/><path d="M11.9373,59.3579a1.148,1.148,0,1,0-.8119-.3363,1.1555,1.1555,0,0,0,.8119.3363" fill="#727373"/><path d="M38.7779,63.3325a1.1482,1.1482,0,1,0-.8119-.3363,1.1557,1.1557,0,0,0,.8119.3363" fill="#727373"/><path d="M52.3822,30.6922a1.1482,1.1482,0,1,0-.8118-.3363,1.1557,1.1557,0,0,0,.8118.3363" fill="#727373"/><path d="M23.3825,34.7664a1.1482,1.1482,0,1,0-.8118-.3363,1.1559,1.1559,0,0,0,.8118.3363" fill="#727373"/><path d="M62.8519,56.9127a1.1482,1.1482,0,1,0-.8119-.3363,1.1557,1.1557,0,0,0,.8119.3363" fill="#727373"/></svg>