<svg xmlns="http://www.w3.org/2000/svg" width="32" height="32" viewBox="0 0 32 32"><title>minimo-grey</title><g id="patterns"><line x1="33.0002" y1="-1.0059" x2="-0.9929" y2="32.9872" fill="none" stroke="#727373" stroke-miterlimit="10" stroke-width="0.5"/><line x1="33.0002" y1="2.137" x2="2.1223" y2="33.0148" fill="none" stroke="#727373" stroke-miterlimit="10" stroke-width="0.5"/><line x1="33.0002" y1="5.2798" x2="5.2084" y2="33.0715" fill="none" stroke="#727373" stroke-miterlimit="10" stroke-width="0.5"/><line x1="33.0002" y1="20.9941" x2="20.9138" y2="33.0805" fill="none" stroke="#727373" stroke-miterlimit="10" stroke-width="0.5"/><line x1="33.0002" y1="24.137" x2="24.1259" y2="33.0113" fill="none" stroke="#727373" stroke-miterlimit="10" stroke-width="0.5"/><line x1="33.0002" y1="27.2798" x2="27.2442" y2="33.0358" fill="none" stroke="#727373" stroke-miterlimit="10" stroke-width="0.5"/><line x1="33.0002" y1="8.4227" x2="8.425" y2="32.9979" fill="none" stroke="#727373" stroke-miterlimit="10" stroke-width="0.5"/><line x1="33.0002" y1="11.5655" x2="11.5167" y2="33.049" fill="none" stroke="#727373" stroke-miterlimit="10" stroke-width="0.5"/><line x1="33.0002" y1="14.7084" x2="14.6102" y2="33.0983" fill="none" stroke="#727373" stroke-miterlimit="10" stroke-width="0.5"/><line x1="33.0002" y1="17.8513" x2="17.7642" y2="33.0872" fill="none" stroke="#727373" stroke-miterlimit="10" stroke-width="0.5"/><line x1="33.0577" y1="30.4118" x2="30.4327" y2="33.0368" fill="none" stroke="#727373" stroke-miterlimit="10" stroke-width="0.5"/><line x1="1.5527" y1="-1.0267" x2="-1.083" y2="1.609" fill="none" stroke="#727373" stroke-miterlimit="10" stroke-width="0.5"/><line x1="4.6748" y1="-1.0059" x2="-1.083" y2="4.7518" fill="none" stroke="#727373" stroke-miterlimit="10" stroke-width="0.5"/><line x1="7.9141" y1="-1.1024" x2="-1.083" y2="7.8947" fill="none" stroke="#727373" stroke-miterlimit="10" stroke-width="0.5"/><line x1="23.5714" y1="-1.0454" x2="-0.9888" y2="23.5148" fill="none" stroke="#727373" stroke-miterlimit="10" stroke-width="0.5"/><line x1="26.6748" y1="-1.0059" x2="-0.9888" y2="26.6577" fill="none" stroke="#727373" stroke-miterlimit="10" stroke-width="0.5"/><line x1="29.8384" y1="-1.0267" x2="-0.9888" y2="29.8005" fill="none" stroke="#727373" stroke-miterlimit="10" stroke-width="0.5"/><line x1="11" y1="-1.0454" x2="-1.083" y2="11.0375" fill="none" stroke="#727373" stroke-miterlimit="10" stroke-width="0.5"/><line x1="14.1033" y1="-1.0059" x2="-1.083" y2="14.1804" fill="none" stroke="#727373" stroke-miterlimit="10" stroke-width="0.5"/><line x1="17.267" y1="-1.0267" x2="-1.083" y2="17.3233" fill="none" stroke="#727373" stroke-miterlimit="10" stroke-width="0.5"/><line x1="20.4286" y1="-1.0454" x2="-1.083" y2="20.4661" fill="none" stroke="#727373" stroke-miterlimit="10" stroke-width="0.5"/></g></svg>