<svg xmlns="http://www.w3.org/2000/svg" width="32" height="32" viewBox="0 0 32 32"><title>minimo-grey</title><g id="patterns"><rect x="-0.943" y="-1.21" width="33.693" height="34.5433" fill="#fff"/><line x1="-1.7923" y1="15.6661" x2="15.6713" y2="-1.7975" fill="none" stroke="#bcbcbc" stroke-miterlimit="10" stroke-width="0.5"/><line x1="11.1282" y1="-1.7975" x2="-1.7923" y2="11.1229" fill="none" stroke="#bcbcbc" stroke-miterlimit="10" stroke-width="0.5"/><line x1="-1.7923" y1="20.2092" x2="20.2145" y2="-1.7975" fill="none" stroke="#bcbcbc" stroke-miterlimit="10" stroke-width="0.5"/><line x1="15.6713" y1="-1.7975" x2="-1.7923" y2="15.6661" fill="none" stroke="#bcbcbc" stroke-miterlimit="10" stroke-width="0.5"/><line x1="-1.7923" y1="24.7524" x2="24.7578" y2="-1.7975" fill="none" stroke="#bcbcbc" stroke-miterlimit="10" stroke-width="0.5"/><line x1="20.2145" y1="-1.7975" x2="-1.7923" y2="20.2092" fill="none" stroke="#bcbcbc" stroke-miterlimit="10" stroke-width="0.5"/><line x1="-1.7923" y1="6.5796" x2="6.5848" y2="-1.7975" fill="none" stroke="#bcbcbc" stroke-miterlimit="10" stroke-width="0.5"/><line x1="2.0416" y1="-1.7975" x2="-1.7923" y2="2.0364" fill="none" stroke="#bcbcbc" stroke-miterlimit="10" stroke-width="0.5"/><line x1="-1.7923" y1="11.1229" x2="11.1282" y2="-1.7975" fill="none" stroke="#bcbcbc" stroke-miterlimit="10" stroke-width="0.5"/><line x1="6.5848" y1="-1.7975" x2="-1.7923" y2="6.5796" fill="none" stroke="#bcbcbc" stroke-miterlimit="10" stroke-width="0.5"/><line x1="-1.7923" y1="2.0364" x2="2.0416" y2="-1.7975" fill="none" stroke="#bcbcbc" stroke-miterlimit="10" stroke-width="0.5"/><polyline points="-1.792 33.797 -1.751 33.797 33.803 -1.756 33.803 -1.798" fill="none" stroke="#bcbcbc" stroke-miterlimit="10" stroke-width="0.5"/><line x1="29.301" y1="-1.7975" x2="-1.7923" y2="29.2957" fill="none" stroke="#bcbcbc" stroke-miterlimit="10" stroke-width="0.5"/><line x1="-1.7923" y1="29.2957" x2="29.301" y2="-1.7975" fill="none" stroke="#bcbcbc" stroke-miterlimit="10" stroke-width="0.5"/><line x1="24.7578" y1="-1.7975" x2="-1.7923" y2="24.7524" fill="none" stroke="#bcbcbc" stroke-miterlimit="10" stroke-width="0.5"/><line x1="25.5084" y1="33.7975" x2="33.8027" y2="25.5031" fill="none" stroke="#bcbcbc" stroke-miterlimit="10" stroke-width="0.5"/><line x1="33.8027" y1="20.9599" x2="20.9651" y2="33.7975" fill="none" stroke="#bcbcbc" stroke-miterlimit="10" stroke-width="0.5"/><line x1="2.7924" y1="33.7975" x2="33.8027" y2="2.787" fill="none" stroke="#bcbcbc" stroke-miterlimit="10" stroke-width="0.5"/><line x1="33.8027" y1="-1.7561" x2="-1.7509" y2="33.7975" fill="none" stroke="#bcbcbc" stroke-miterlimit="10" stroke-width="0.5"/><line x1="33.8027" y1="30.0463" x2="30.0515" y2="33.7975" fill="none" stroke="#bcbcbc" stroke-miterlimit="10" stroke-width="0.5"/><line x1="20.9651" y1="33.7975" x2="33.8027" y2="20.9599" fill="none" stroke="#bcbcbc" stroke-miterlimit="10" stroke-width="0.5"/><line x1="33.8027" y1="16.4167" x2="16.4219" y2="33.7975" fill="none" stroke="#bcbcbc" stroke-miterlimit="10" stroke-width="0.5"/><line x1="30.0515" y1="33.7975" x2="33.8027" y2="30.0463" fill="none" stroke="#bcbcbc" stroke-miterlimit="10" stroke-width="0.5"/><line x1="33.8027" y1="25.5031" x2="25.5084" y2="33.7975" fill="none" stroke="#bcbcbc" stroke-miterlimit="10" stroke-width="0.5"/><line x1="7.3355" y1="33.7975" x2="33.8027" y2="7.3303" fill="none" stroke="#bcbcbc" stroke-miterlimit="10" stroke-width="0.5"/><line x1="33.8027" y1="2.787" x2="2.7924" y2="33.7975" fill="none" stroke="#bcbcbc" stroke-miterlimit="10" stroke-width="0.5"/><line x1="11.8787" y1="33.7975" x2="33.8027" y2="11.8735" fill="none" stroke="#bcbcbc" stroke-miterlimit="10" stroke-width="0.5"/><line x1="33.8027" y1="7.3303" x2="7.3355" y2="33.7975" fill="none" stroke="#bcbcbc" stroke-miterlimit="10" stroke-width="0.5"/><line x1="16.4219" y1="33.7975" x2="33.8027" y2="16.4167" fill="none" stroke="#bcbcbc" stroke-miterlimit="10" stroke-width="0.5"/><line x1="33.8027" y1="11.8735" x2="11.8787" y2="33.7975" fill="none" stroke="#bcbcbc" stroke-miterlimit="10" stroke-width="0.5"/></g></svg>