<svg xmlns="http://www.w3.org/2000/svg" width="23" height="26" viewBox="0 0 23 26"><title>minimo-grey</title><g id="Layer_10" data-name="Layer 10"><path d="M22,25V5.2237h.157v-.169h-.2887a3.6794,3.6794,0,0,1-1.7069-3.164V1.577h.1928V1.408H20.057a2.5864,2.5864,0,0,0-1.5181-.3962,2.5862,2.5862,0,0,0-1.5181.3962h-.3285v.169h.2241V1.89a3.7374,3.7374,0,0,1-1.9325,3.1643h-.1391v.169H15V11H13.8076L11.6855,7V6.6569H12V6.3836H11v.2733h.3024V7L9.18,11H8V9l-.6039-.004L4.87,5.9356V5.3231h.1259v-.09H4v.09h.1191v.6125c-.5687.62-2.507,3.06-2.507,3.06L1.0058,9V25Z" fill="#fff"/><path d="M21.8683,5.0547a3.6794,3.6794,0,0,1-1.7069-3.164V1.577h.1928V1.408H20.057a2.5864,2.5864,0,0,0-1.5181-.3962,2.5862,2.5862,0,0,0-1.5181.3962h-.3285v.169h.2241V1.89a3.7374,3.7374,0,0,1-1.9325,3.1643h-.1391v.169H15V11H13.8076L11.6855,7V6.6569H12V6.3836H11v.2733h.3024V7L9.18,11H8V9l-.6039-.004L4.87,5.9356V5.3231h.1259v-.09H4v.09h.1191v.6125c-.5687.62-2.507,3.06-2.507,3.06L1.0058,9V25H2V22.5a.5.5,0,0,1,1,0V25H4V23H5v2H6V23H7v2h3V23h3v2h3V22h1v3h5V5.2237h.157v-.169ZM4,7H5V8H4ZM3,21H2V19H3Zm0-3H2V15H3Zm0-4H2V12H3Zm2,7H4V19H5Zm0-3H4V15H5Zm0-4H4V12H5ZM3,11V9.489H6V11ZM7,21H6V19H7Zm0-3H6V15H7Zm0-4H6V12H7Zm4.5-5a.5.5,0,1,1-.5.5A.5.5,0,0,1,11.5,9ZM10,22H9V20h1Zm0-3H9V17h1Zm0-3H9V13h1Zm2,6H11V20h1Zm0-3H11V17h1Zm0-3H11V13h1Zm-2-4V11h3v1Zm4,10H13V20h1Zm0-3H13V17h1Zm0-3H13V13h1ZM18.5,2a.5.5,0,1,1-.5.5A.5.5,0,0,1,18.5,2Zm0,2a.5.5,0,1,1-.5.5A.5.5,0,0,1,18.5,4ZM17,21H16V17h1Zm0-5H16V12h1Zm0-5H16V9h1Zm0-5h3V8H17Zm2,18H18V22h1Zm0-3H18V17h1Zm0-5H18V12h1Zm0-5H18V9h1Zm2,13H20V22h1Zm0-3H20V17h1Zm0-5H20V12h1Zm0-5H20V9h1Z" fill="#727373"/></g></svg>