<svg id="Layer_1" data-name="Layer 1" xmlns="http://www.w3.org/2000/svg" width="21" height="21" viewBox="0 0 21 21"><title>rail-15</title><rect width="21" height="21" fill="none"/><path d="M8.5,3a.49.49,0,0,0-.5.48V4.5a.5.5,0,0,0,1,0V4h1V6H9A1.9588,1.9588,0,0,0,7,7.9167c-.0006.0278-.0006.0555,0,.0833v3a2.9382,2.9382,0,0,0,2.8751,3h0q.0624.0013.1249,0h1a2.9382,2.9382,0,0,0,3-2.8751h0q.0013-.0624,0-.1249V8a1.9588,1.9588,0,0,0-1.9167-2c-.0278-.0006-.0555-.0006-.0833,0H11V4h1v.5a.5.5,0,0,0,1,0v-1a.49.49,0,0,0-.48-.5H8.5Zm2,4,2.0449.7734L13,9.5c.1316.5-.5.5-.5.5h-4s-.6316,0-.5-.5l.4551-1.7266Zm0,4a.5.5,0,1,1-.5.5A.5.5,0,0,1,10.5,11ZM7.125,15,6,18H7.5l.375-1h5.25l.375,1H15l-1.125-3h-1.5l.375,1H8.25l.375-1Z" fill="#fff" stroke="#fff" stroke-linejoin="round" stroke-width="2"/><path d="M8.5,3a.49.49,0,0,0-.5.48V4.5a.5.5,0,0,0,1,0V4h1V6H9A1.9588,1.9588,0,0,0,7,7.9167c-.0006.0278-.0006.0555,0,.0833v3a2.9382,2.9382,0,0,0,2.8751,3h0q.0624.0013.1249,0h1a2.9382,2.9382,0,0,0,3-2.8751h0q.0013-.0624,0-.1249V8a1.9588,1.9588,0,0,0-1.9167-2c-.0278-.0006-.0555-.0006-.0833,0H11V4h1v.5a.5.5,0,0,0,1,0v-1a.49.49,0,0,0-.48-.5H8.5Zm2,4,2.0449.7734L13,9.5c.1316.5-.5.5-.5.5h-4s-.6316,0-.5-.5l.4551-1.7266Zm0,4a.5.5,0,1,1-.5.5A.5.5,0,0,1,10.5,11ZM7.125,15,6,18H7.5l.375-1h5.25l.375,1H15l-1.125-3h-1.5l.375,1H8.25l.375-1Z" fill="#8c8c4f"/></svg>